<svg width="26" height="26" viewBox="0 0 26 26" fill="none" xmlns="http://www.w3.org/2000/svg">
<path fill-rule="evenodd" clip-rule="evenodd" d="M12.9997 2.08325C6.97057 2.08325 2.08301 6.97081 2.08301 12.9999C2.08301 19.029 6.97057 23.9166 12.9997 23.9166C19.0288 23.9166 23.9163 19.029 23.9163 12.9999C23.9163 6.97081 19.0288 2.08325 12.9997 2.08325ZM0.583008 12.9999C0.583008 6.14238 6.14214 0.583252 12.9997 0.583252C19.8572 0.583252 25.4163 6.14238 25.4163 12.9999C25.4163 19.8575 19.8572 25.4166 12.9997 25.4166C6.14214 25.4166 0.583008 19.8575 0.583008 12.9999ZM13.3713 7.95095C12.7312 7.84116 12.0729 7.96145 11.513 8.29051C10.9531 8.61957 10.5277 9.13616 10.3122 9.7488C10.1747 10.1395 9.74653 10.3449 9.35579 10.2074C8.96505 10.07 8.75972 9.64178 8.89717 9.25104C9.23024 8.30423 9.88764 7.50585 10.7529 6.99731C11.6182 6.48876 12.6356 6.30287 13.6248 6.47255C14.6141 6.64222 15.5113 7.15653 16.1577 7.92437C16.8039 8.69204 17.1577 9.6636 17.1563 10.667C17.1561 12.2316 15.9926 13.3022 15.0724 13.9156C14.5894 14.2376 14.1118 14.4759 13.7578 14.6332C13.5798 14.7123 13.4304 14.7721 13.3237 14.8128C13.2703 14.8331 13.2275 14.8487 13.1969 14.8596L13.1604 14.8724L13.1494 14.8761L13.1458 14.8773L13.1445 14.8778C13.1443 14.8778 13.1435 14.8781 12.9204 14.2088L13.1435 14.8781C12.7506 15.0091 12.3258 14.7967 12.1948 14.4038C12.064 14.0111 12.2758 13.5868 12.6681 13.4554L12.6692 13.4551L12.6724 13.454L12.6944 13.4463C12.7151 13.4389 12.7474 13.4272 12.7897 13.411C12.8745 13.3787 12.9985 13.3292 13.1486 13.2625C13.4509 13.1281 13.8483 12.9289 14.2403 12.6675C15.07 12.1144 15.6563 11.4351 15.6563 10.6666L15.6563 10.6655C15.6573 10.016 15.4284 9.38721 15.0102 8.89037C14.5919 8.39353 14.0113 8.06075 13.3713 7.95095ZM12.2497 18.8333C12.2497 18.419 12.5855 18.0833 12.9997 18.0833H13.0113C13.4256 18.0833 13.7613 18.419 13.7613 18.8333C13.7613 19.2475 13.4256 19.5833 13.0113 19.5833H12.9997C12.5855 19.5833 12.2497 19.2475 12.2497 18.8333Z" fill="#090A0A"/>
</svg>
