<svg width="17" height="19" viewBox="0 0 17 19" fill="none" xmlns="http://www.w3.org/2000/svg">
<path d="M1.80771 19C1.30257 19 0.875003 18.8044 0.525001 18.4132C0.175 18.0221 0 17.5442 0 16.9796V2.02038C0 1.45582 0.175 0.977944 0.525001 0.586766C0.875003 0.195589 1.30257 0 1.80771 0H12.2885L17 5.26584V16.9796C17 17.5442 16.825 18.0221 16.475 18.4132C16.125 18.8044 15.6974 19 15.1923 19H1.80771ZM1.80771 17.3236H15.1923C15.282 17.3236 15.3558 17.2913 15.4135 17.2268C15.4712 17.1623 15.5 17.0799 15.5 16.9796V6.14705H11.5V1.67645H1.80771C1.71795 1.67645 1.64423 1.70869 1.58653 1.77318C1.52883 1.83767 1.49998 1.92007 1.49998 2.02038V16.9796C1.49998 17.0799 1.52883 17.1623 1.58653 17.2268C1.64423 17.2913 1.71795 17.3236 1.80771 17.3236ZM3.75001 14.5294H13.25V12.853H3.75001V14.5294ZM3.75001 6.14705H8.5V4.4706H3.75001V6.14705ZM3.75001 10.3382H13.25V8.66179H3.75001V10.3382Z" fill="#1E88E5"/>
</svg>
