<svg width="334" height="320" viewBox="0 0 334 320" fill="none" xmlns="http://www.w3.org/2000/svg">
<g clip-path="url(#clip0_6_8092)">
<path d="M140.436 66.7285H138.888V24.4624C138.888 17.9746 136.303 11.7525 131.702 7.16489C127.101 2.5773 120.86 6.30073e-06 114.352 0H24.5362C21.3141 -8.11132e-06 18.1235 0.632725 15.1466 1.86207C12.1697 3.09141 9.4649 4.89329 7.1865 7.16484C4.90811 9.43638 3.10079 12.1331 1.86772 15.101C0.63466 18.0689 7.50999e-06 21.2499 0 24.4624V256.337C-5.0557e-06 262.825 2.58505 269.047 7.18646 273.635C11.7879 278.222 18.0287 280.8 24.5361 280.8H114.352C117.574 280.8 120.765 280.167 123.742 278.938C126.719 277.708 129.424 275.906 131.702 273.635C133.98 271.363 135.788 268.667 137.021 265.699C138.254 262.731 138.888 259.55 138.888 256.337V96.8142H140.436L140.436 66.7285Z" fill="#3F3D56"/>
<path d="M115.342 6.36427H103.618C104.157 7.68214 104.363 9.11197 104.217 10.5278C104.071 11.9436 103.578 13.302 102.782 14.4833C101.986 15.6646 100.911 16.6325 99.6506 17.3018C98.3908 17.9711 96.9852 18.3213 95.5576 18.3214H44.1031C42.6755 18.3213 41.2699 17.9712 40.01 17.3019C38.7501 16.6326 37.6747 15.6646 36.8784 14.4833C36.0821 13.3021 35.5894 11.9437 35.4438 10.5278C35.2981 9.11196 35.5039 7.68212 36.0431 6.36426H25.0929C20.2332 6.36425 15.5726 8.28894 12.1363 11.7149C8.70003 15.1409 6.76954 19.7875 6.76953 24.6325V256.167C6.76953 258.566 7.24347 260.942 8.1643 263.158C9.08514 265.375 10.4348 267.388 12.1363 269.085C13.8378 270.781 15.8577 272.127 18.0808 273.045C20.3039 273.963 22.6866 274.435 25.0928 274.435H115.342C117.748 274.435 120.13 273.963 122.354 273.045C124.577 272.127 126.597 270.781 128.298 269.085C130 267.388 131.349 265.375 132.27 263.158C133.191 260.942 133.665 258.566 133.665 256.167V24.6325C133.665 22.2335 133.191 19.858 132.27 17.6416C131.349 15.4251 130 13.4113 128.298 11.7149C126.597 10.0185 124.577 8.67292 122.354 7.75485C120.13 6.83679 117.748 6.36427 115.342 6.36427Z" fill="white"/>
<path d="M111.883 103.562H28.5538C27.9969 103.561 27.4629 103.34 27.0691 102.948C26.6752 102.555 26.4537 102.023 26.4531 101.467V52.5977C26.4537 52.0424 26.6752 51.51 27.0691 51.1173C27.4629 50.7247 27.9969 50.5038 28.5538 50.5032H111.883C112.44 50.5038 112.974 50.7247 113.367 51.1173C113.761 51.51 113.983 52.0424 113.983 52.5977V101.467C113.983 102.023 113.761 102.555 113.367 102.948C112.974 103.34 112.44 103.561 111.883 103.562Z" fill="white"/>
<path d="M84.0538 76.5935C83.6296 76.1408 83.1185 75.7777 82.5509 75.5259C81.9832 75.274 81.3705 75.1385 80.7493 75.1274C80.128 75.1164 79.5108 75.23 78.9345 75.4614C78.3582 75.6929 77.8344 76.0376 77.3943 76.4749L53.9434 99.8555C53.3238 100.472 52.4847 100.818 51.6095 100.82C50.7343 100.821 49.8942 100.477 49.2728 99.8625L45.7997 96.4067C45.3703 95.9784 44.8604 95.6387 44.2993 95.4069C43.7382 95.1751 43.1368 95.0558 42.5294 95.0558C41.922 95.0558 41.3206 95.1751 40.7595 95.4069C40.1984 95.6387 39.6885 95.9784 39.2592 96.4067L32.5371 103.116H107.897V102.159L84.0538 76.5935Z" fill="#F2994A"/>
<path d="M111.883 104.274H28.5539C27.8074 104.274 27.0917 103.978 26.5639 103.451C26.036 102.925 25.7391 102.212 25.7383 101.467V52.5978C25.7391 51.8535 26.036 51.14 26.5639 50.6137C27.0917 50.0875 27.8074 49.7914 28.5539 49.7906H111.883C112.629 49.7914 113.345 50.0875 113.873 50.6137C114.4 51.14 114.697 51.8535 114.698 52.5978V101.467C114.697 102.212 114.4 102.925 113.873 103.451C113.345 103.978 112.629 104.274 111.883 104.274ZM28.5538 51.216C28.1864 51.2164 27.8341 51.3622 27.5743 51.6212C27.3145 51.8802 27.1684 52.2315 27.168 52.5978V101.467C27.1684 101.834 27.3145 102.185 27.5743 102.444C27.8341 102.703 28.1864 102.849 28.5538 102.849H111.883C112.25 102.849 112.602 102.703 112.862 102.444C113.122 102.185 113.268 101.834 113.268 101.467V52.5978C113.268 52.2314 113.122 51.8802 112.862 51.6212C112.602 51.3621 112.25 51.2164 111.883 51.216L28.5538 51.216Z" fill="#CBCBCB"/>
<path d="M106.753 253.175C104.703 253.175 102.699 252.569 100.994 251.433C99.2891 250.297 97.9604 248.683 97.1758 246.795C96.3912 244.906 96.1859 242.828 96.5859 240.823C96.9859 238.819 97.9732 236.977 99.4229 235.532C100.873 234.086 102.72 233.102 104.731 232.703C106.741 232.304 108.826 232.509 110.72 233.291C112.614 234.073 114.233 235.398 115.372 237.098C116.511 238.797 117.119 240.795 117.119 242.84C117.116 245.58 116.023 248.207 114.08 250.144C112.136 252.082 109.501 253.172 106.753 253.175ZM106.753 233.3C104.86 233.3 103.01 233.859 101.437 234.907C99.8632 235.956 98.6368 237.446 97.9125 239.189C97.1883 240.932 96.9988 242.85 97.368 244.701C97.7372 246.551 98.6486 248.251 99.9868 249.585C101.325 250.92 103.03 251.828 104.886 252.196C106.742 252.564 108.666 252.376 110.415 251.653C112.163 250.931 113.658 249.709 114.709 248.14C115.761 246.571 116.322 244.726 116.322 242.84C116.319 240.31 115.31 237.885 113.516 236.097C111.722 234.308 109.29 233.302 106.753 233.3Z" fill="#CBCBCB"/>
<path d="M102.275 246.319C102.202 246.319 102.131 246.295 102.073 246.251C102.015 246.207 101.974 246.145 101.955 246.074C101.936 246.004 101.941 245.929 101.969 245.862C101.997 245.795 102.046 245.739 102.109 245.702L107.083 242.84L102.109 239.977C102.033 239.933 101.977 239.861 101.955 239.776C101.932 239.691 101.944 239.601 101.988 239.525C102.032 239.449 102.104 239.394 102.189 239.371C102.274 239.348 102.365 239.36 102.441 239.404L107.912 242.553C107.962 242.582 108.004 242.624 108.033 242.674C108.062 242.725 108.077 242.782 108.077 242.84C108.077 242.898 108.062 242.955 108.033 243.005C108.004 243.055 107.962 243.097 107.912 243.126L102.441 246.275C102.39 246.304 102.333 246.319 102.275 246.319Z" fill="#CBCBCB"/>
<path d="M109.611 247.467C109.523 247.467 109.439 247.433 109.376 247.371C109.314 247.309 109.279 247.225 109.279 247.137V238.542C109.28 238.455 109.315 238.371 109.377 238.309C109.439 238.248 109.523 238.213 109.611 238.213C109.699 238.213 109.783 238.248 109.845 238.309C109.907 238.371 109.942 238.455 109.942 238.542V247.137C109.942 247.225 109.907 247.309 109.845 247.371C109.783 247.433 109.699 247.467 109.611 247.467Z" fill="#CBCBCB"/>
<path d="M48.9402 124.376C48.5272 124.376 48.131 124.54 47.839 124.831C47.5469 125.122 47.3828 125.517 47.3828 125.929C47.3828 126.341 47.5469 126.736 47.839 127.027C48.131 127.318 48.5272 127.482 48.9402 127.482H91.4941C91.9071 127.482 92.3033 127.318 92.5953 127.027C92.8874 126.736 93.0515 126.341 93.0515 125.929C93.0515 125.517 92.8874 125.122 92.5953 124.831C92.3033 124.54 91.9071 124.376 91.4941 124.376H48.9402Z" fill="#CCCCCC"/>
<path d="M24.8738 145.757C24.4608 145.757 24.0646 145.921 23.7726 146.212C23.4805 146.503 23.3164 146.898 23.3164 147.31C23.3164 147.722 23.4805 148.117 23.7726 148.408C24.0646 148.699 24.4608 148.863 24.8738 148.863H115.561C115.974 148.863 116.37 148.699 116.662 148.408C116.954 148.117 117.118 147.722 117.118 147.31C117.118 146.898 116.954 146.503 116.662 146.212C116.37 145.921 115.974 145.757 115.561 145.757H24.8738Z" fill="#CCCCCC"/>
<path d="M24.8738 158.111C24.4608 158.111 24.0646 158.274 23.7726 158.565C23.4805 158.857 23.3164 159.252 23.3164 159.663C23.3164 160.075 23.4805 160.47 23.7726 160.761C24.0646 161.052 24.4608 161.216 24.8738 161.216H115.561C115.974 161.216 116.37 161.052 116.662 160.761C116.954 160.47 117.118 160.075 117.118 159.663C117.118 159.252 116.954 158.857 116.662 158.565C116.37 158.274 115.974 158.111 115.561 158.111H24.8738Z" fill="#CCCCCC"/>
<path d="M24.8738 170.464C24.4608 170.464 24.0646 170.628 23.7726 170.919C23.4805 171.21 23.3164 171.605 23.3164 172.017C23.3164 172.429 23.4805 172.823 23.7726 173.115C24.0646 173.406 24.4608 173.569 24.8738 173.569H115.561C115.974 173.569 116.37 173.406 116.662 173.115C116.954 172.823 117.118 172.429 117.118 172.017C117.118 171.605 116.954 171.21 116.662 170.919C116.37 170.628 115.974 170.464 115.561 170.464H24.8738Z" fill="#CCCCCC"/>
<path d="M24.8738 182.818C24.4608 182.818 24.0646 182.981 23.7726 183.272C23.4805 183.563 23.3164 183.958 23.3164 184.37C23.3164 184.782 23.4805 185.177 23.7726 185.468C24.0646 185.759 24.4608 185.923 24.8738 185.923H115.561C115.974 185.923 116.37 185.759 116.662 185.468C116.954 185.177 117.118 184.782 117.118 184.37C117.118 183.958 116.954 183.563 116.662 183.272C116.37 182.981 115.974 182.818 115.561 182.818H24.8738Z" fill="#CCCCCC"/>
<path d="M24.8738 195.171C24.6693 195.171 24.4668 195.211 24.2778 195.289C24.0889 195.367 23.9172 195.482 23.7726 195.626C23.6279 195.77 23.5132 195.941 23.435 196.129C23.3567 196.318 23.3164 196.52 23.3164 196.724C23.3164 196.928 23.3567 197.129 23.435 197.318C23.5132 197.506 23.6279 197.677 23.7726 197.822C23.9172 197.966 24.0889 198.08 24.2778 198.158C24.4668 198.236 24.6693 198.276 24.8738 198.276H115.561C115.974 198.276 116.37 198.113 116.662 197.822C116.954 197.53 117.118 197.135 117.118 196.724C117.118 196.312 116.954 195.917 116.662 195.626C116.37 195.335 115.974 195.171 115.561 195.171H24.8738Z" fill="#CCCCCC"/>
<path d="M24.8738 207.524C24.4608 207.524 24.0646 207.688 23.7726 207.979C23.4805 208.27 23.3164 208.665 23.3164 209.077C23.3164 209.489 23.4805 209.884 23.7726 210.175C24.0646 210.466 24.4608 210.63 24.8738 210.63H115.561C115.974 210.63 116.37 210.466 116.662 210.175C116.954 209.884 117.118 209.489 117.118 209.077C117.118 208.665 116.954 208.27 116.662 207.979C116.37 207.688 115.974 207.524 115.561 207.524H24.8738Z" fill="#CCCCCC"/>
<path d="M245.087 221.431C245.572 221.027 245.961 220.521 246.229 219.95C246.496 219.379 246.635 218.756 246.635 218.126C246.635 217.495 246.496 216.873 246.228 216.302C245.961 215.731 245.571 215.225 245.086 214.821L241.871 158.414L232.699 160.481L238.763 215.57C238.135 216.427 237.845 217.484 237.946 218.54C238.048 219.596 238.534 220.579 239.314 221.301C240.093 222.024 241.112 222.436 242.176 222.46C243.24 222.484 244.276 222.118 245.087 221.431Z" fill="#9F616A"/>
<path d="M282.331 228.776C281.832 228.389 281.425 227.898 281.137 227.337C280.849 226.776 280.688 226.159 280.665 225.529C280.642 224.899 280.758 224.272 281.005 223.691C281.251 223.111 281.623 222.592 282.092 222.17L283.257 165.684L292.498 167.419L288.439 222.691C289.097 223.524 289.426 224.57 289.363 225.629C289.3 226.689 288.849 227.688 288.096 228.438C287.343 229.188 286.341 229.637 285.278 229.699C284.216 229.762 283.167 229.433 282.331 228.776Z" fill="#9F616A"/>
<path d="M287.222 312.725L294.418 312.725L296.471 295.987L287.221 295.988L287.222 312.725Z" fill="#9F616A"/>
<path d="M285.385 310.383L299.557 310.382H299.558C301.953 310.382 304.25 311.331 305.944 313.02C307.637 314.708 308.589 316.998 308.589 319.386V319.679L285.385 319.68L285.385 310.383Z" fill="#2F2E41"/>
<path d="M242.316 312.725L249.512 312.725L251.565 285.051L242.314 285.052L242.316 312.725Z" fill="#9F616A"/>
<path d="M240.48 310.383L254.653 310.382H254.653C257.049 310.382 259.346 311.331 261.039 313.02C262.733 314.708 263.685 316.998 263.685 319.386V319.679L240.481 319.68L240.48 310.383Z" fill="#2F2E41"/>
<path d="M271.879 136.939C278.381 136.939 283.652 131.684 283.652 125.201C283.652 118.718 278.381 113.463 271.879 113.463C265.377 113.463 260.105 118.718 260.105 125.201C260.105 131.684 265.377 136.939 271.879 136.939Z" fill="#9F616A"/>
<path d="M286.268 149.427C286.268 149.427 291.5 149.862 291.936 152.47C292.372 155.079 291.936 162.904 291.936 162.904C291.936 162.904 295.425 173.338 291.936 175.946C288.448 178.554 279.291 178.989 279.291 178.989L286.268 149.427Z" fill="#F2994A"/>
<path d="M241.791 208.551L236.994 216.377C236.994 216.377 238.738 250.721 239.174 251.591C239.521 252.101 239.675 252.717 239.61 253.33V258.112L240.919 299.847C240.919 299.847 237.43 301.586 241.791 302.89C246.151 304.194 251.82 304.629 252.692 300.281C253.564 295.934 253.605 259.716 253.564 258.546L254 256.807L260.977 231.158L277.111 266.806L286.704 306.802C286.704 306.802 301.222 308.474 298.606 302.822C295.99 297.171 289.756 255.068 289.756 255.068C289.756 255.068 288.448 250.721 288.448 249.852C288.448 248.982 288.012 248.547 288.012 247.678C288.012 246.808 287.576 244.2 287.576 244.2L284.523 216.811L241.791 208.551Z" fill="#2F2E41"/>
<path d="M260.105 138.801C260.105 138.801 260.366 139.45 279.748 141.857C279.748 141.857 290.628 148.992 291.064 150.731C291.5 152.47 282.779 174.642 282.779 174.642L281.907 191.597C281.907 191.597 286.266 198.928 284.087 221.594C277.274 221.971 249.685 213.028 242.881 209.204C241.847 208.623 239.438 211.184 239.61 210.725C240.919 207.247 239.61 207.682 240.919 206.812C242.227 205.943 244.407 175.511 244.407 175.511C244.407 175.511 241.791 142.471 244.843 141.602C247.895 140.732 260.105 138.801 260.105 138.801Z" fill="#F2994A"/>
<path d="M246.152 142.036C246.152 142.036 240.92 141.602 239.611 145.949C238.303 150.296 227.402 166.817 229.582 168.555C231.762 170.294 248.332 176.381 248.768 175.946C249.204 175.511 246.152 142.036 246.152 142.036Z" fill="#F2994A"/>
<path d="M285.589 117.716C285.095 115.882 284.398 114.049 282.98 112.782C281.542 111.508 279.698 110.784 277.775 110.739C275.581 109.471 273.118 108.735 270.586 108.592C268.054 108.449 265.524 108.902 263.2 109.915C262.949 109.408 262.542 108.995 262.039 108.735C261.899 109.942 261.759 111.149 261.619 112.356C261.078 111.95 260.537 111.545 259.997 111.139C259.97 111.853 259.943 112.568 259.917 113.282C259.421 112.857 258.925 112.433 258.43 112.008C258.324 114.538 260.436 116.728 262.824 117.591C265.212 118.453 267.831 118.294 270.368 118.175C271.621 118.116 273.047 118.137 273.893 119.061C274.779 120.028 274.612 121.511 274.634 122.821C274.664 124.663 276.561 123.761 277.513 125.341C277.854 125.907 278.263 126.49 278.251 127.15C278.161 127.749 277.943 128.321 277.612 128.829C276.912 130.271 275.519 134.758 276.184 136.217C277.415 135.53 278.645 134.843 279.876 134.157C279.876 134.157 287.98 126.592 285.589 117.716Z" fill="#2F2E41"/>
<path d="M333.524 320H187.219C187.092 320 186.971 319.95 186.882 319.861C186.792 319.772 186.742 319.651 186.742 319.525C186.742 319.399 186.792 319.278 186.882 319.189C186.971 319.1 187.092 319.05 187.219 319.05H333.524C333.65 319.05 333.772 319.1 333.861 319.189C333.95 319.278 334.001 319.399 334.001 319.525C334.001 319.651 333.95 319.772 333.861 319.861C333.772 319.95 333.65 320 333.524 320Z" fill="#CBCBCB"/>
<path d="M210.286 319.239C210.286 319.239 203.168 306.14 185.953 311.804L210.286 319.239Z" fill="#F1F1F1"/>
<path d="M210.714 318.919C210.714 318.919 201.911 307.763 214.617 293.846L210.714 318.919Z" fill="#F1F1F1"/>
</g>
<defs>
<clipPath id="clip0_6_8092">
<rect width="334" height="320" fill="white"/>
</clipPath>
</defs>
</svg>
