<svg width="22" height="24" viewBox="0 0 22 24" fill="none" xmlns="http://www.w3.org/2000/svg">
<path fill-rule="evenodd" clip-rule="evenodd" d="M11.0003 2.25C8.83721 2.25 7.08366 4.00355 7.08366 6.16667C7.08366 8.32978 8.83721 10.0833 11.0003 10.0833C13.1634 10.0833 14.917 8.32978 14.917 6.16667C14.917 4.00355 13.1634 2.25 11.0003 2.25ZM5.58366 6.16667C5.58366 3.17512 8.00878 0.75 11.0003 0.75C13.9919 0.75 16.417 3.17512 16.417 6.16667C16.417 9.15821 13.9919 11.5833 11.0003 11.5833C8.00878 11.5833 5.58366 9.15821 5.58366 6.16667ZM2.5035 16.3365C3.51932 15.3207 4.89707 14.75 6.33366 14.75H15.667C17.1036 14.75 18.4813 15.3207 19.4972 16.3365C20.513 17.3523 21.0837 18.7301 21.0837 20.1667V22.5C21.0837 22.9142 20.7479 23.25 20.3337 23.25H1.66699C1.25278 23.25 0.916992 22.9142 0.916992 22.5V20.1667C0.916992 18.7301 1.48767 17.3523 2.5035 16.3365ZM6.33366 16.25C5.29489 16.25 4.29868 16.6626 3.56416 17.3972C2.82964 18.1317 2.41699 19.1279 2.41699 20.1667V21.75H19.5837V20.1667C19.5837 19.1279 19.171 18.1317 18.4365 17.3972C17.702 16.6626 16.7058 16.25 15.667 16.25H6.33366Z" fill="#F2994A"/>
</svg>
