<svg width="18" height="16" viewBox="0 0 18 16" fill="none" xmlns="http://www.w3.org/2000/svg">
<path d="M16.938 0.00117714C16.7386 0.00972668 16.5445 0.0639642 16.3695 0.132466C16.1963 0.200509 15.199 0.616562 13.7262 1.23201C12.2534 1.84745 10.339 2.64889 8.44117 3.44359C4.64559 5.033 0.915781 6.59686 0.915781 6.59686L0.942966 6.5867C0.942966 6.5867 0.717853 6.66024 0.48962 6.81567C0.375504 6.89338 0.252733 6.99371 0.152209 7.13998C0.0516857 7.28626 -0.0218035 7.49355 0.00589108 7.71281C0.103167 8.48293 0.919779 8.70138 0.919779 8.70138L0.922977 8.70294L4.56734 9.92205C4.66025 10.225 5.67268 13.5278 5.89539 14.2272C6.01839 14.6139 6.13351 14.837 6.25359 14.9892C6.31368 15.0653 6.37666 15.1242 6.44628 15.1673C6.47395 15.1845 6.50304 15.1973 6.53184 15.2088H6.53344C6.53697 15.2103 6.5403 15.2104 6.54383 15.2119L6.53424 15.2095C6.54092 15.2122 6.54753 15.2166 6.55422 15.2189C6.56722 15.2234 6.57518 15.2232 6.5918 15.2267C7.00917 15.3692 7.35458 15.1048 7.35458 15.1048L7.36897 15.0939L9.60771 13.0644L13.2409 15.8332L13.2865 15.8535C13.9224 16.1295 14.4975 15.9755 14.816 15.7222C15.1345 15.4689 15.2597 15.1423 15.2597 15.1423L15.2733 15.1079L17.943 1.50787C18.0114 1.2036 18.0211 0.940602 17.9566 0.702945C17.8922 0.465288 17.7357 0.258696 17.5393 0.144188C17.3429 0.0296798 17.1374 -0.0073724 16.938 0.00117714ZM16.9596 0.814696C17.0406 0.811031 17.1006 0.820079 17.1195 0.831108C17.1384 0.842136 17.1469 0.840685 17.1651 0.907692C17.1832 0.9747 17.1931 1.11584 17.1435 1.33672L17.1419 1.34141L14.4874 14.8626C14.4811 14.8762 14.4258 15.0012 14.2995 15.1017C14.1706 15.2042 14.0273 15.2841 13.647 15.1283L9.67408 12.1L9.56214 12.0141L9.55974 12.0164L8.37161 11.1451L15.0487 3.46704C15.1 3.40819 15.1327 3.33608 15.143 3.25942C15.1533 3.18276 15.1406 3.10484 15.1065 3.03507C15.0724 2.9653 15.0184 2.90668 14.9509 2.86628C14.8835 2.82589 14.8055 2.80546 14.7264 2.80747C14.6492 2.80943 14.5741 2.83273 14.5098 2.87467L4.84798 9.17027L1.19802 7.94882C1.19802 7.94882 0.835584 7.75168 0.818236 7.61434C0.817274 7.60673 0.812995 7.61362 0.831828 7.58621C0.850662 7.5588 0.898004 7.51253 0.957358 7.47211C1.07607 7.39127 1.21162 7.34239 1.21162 7.34239L1.22521 7.3377L1.2388 7.33223C1.2388 7.33223 4.9688 5.76829 8.76419 4.17896C10.6619 3.3843 12.576 2.58345 14.0484 1.96816C15.5204 1.35303 16.5841 0.910258 16.6742 0.87487C16.7767 0.83474 16.8786 0.818362 16.9596 0.814696ZM12.5317 5.12533L7.46811 10.9481L7.46571 10.9505C7.45781 10.9598 7.45034 10.9694 7.44333 10.9794C7.43529 10.9902 7.42782 11.0014 7.42094 11.013C7.39249 11.0602 7.37426 11.1126 7.36737 11.1669C7.36736 11.168 7.36736 11.169 7.36737 11.1701L6.70774 14.0694C6.69677 14.038 6.68909 14.0266 6.67735 13.9896V13.9889C6.46784 13.3309 5.51264 10.2161 5.38048 9.78529L12.5317 5.12533ZM8.03979 11.9023L8.94968 12.5697L7.61283 13.781L8.03979 11.9023Z" fill="white"/>
</svg>
