<svg width="22" height="24" viewBox="0 0 22 24" fill="none" xmlns="http://www.w3.org/2000/svg">
<path d="M4 23.6668C3.02778 23.6668 2.20139 23.3266 1.52083 22.646C0.840278 21.9654 0.5 21.1391 0.5 20.1668V17.2502H4V0.333496L5.75 2.0835L7.5 0.333496L9.25 2.0835L11 0.333496L12.75 2.0835L14.5 0.333496L16.25 2.0835L18 0.333496L19.75 2.0835L21.5 0.333496V20.1668C21.5 21.1391 21.1597 21.9654 20.4792 22.646C19.7986 23.3266 18.9722 23.6668 18 23.6668H4ZM18 21.9168C18.3306 21.9168 18.9431 21.5571 19.1667 21.3335C19.3903 21.1099 19.75 20.4974 19.75 20.1668V3.8335H5.75V17.2502H16.25V20.1668C16.25 20.4974 16.6097 21.1099 16.8333 21.3335C17.0569 21.5571 17.6694 21.9168 18 21.9168ZM7.5 8.16475V6.50225H14.5V8.16475H7.5ZM7.5 11.6647V10.0022H14.5V11.6647H7.5ZM16.8333 8.50016C16.5028 8.50016 16.2257 8.38836 16.0021 8.16475C15.7785 7.94114 15.6667 7.66405 15.6667 7.3335C15.6667 7.00294 15.7785 6.72586 16.0021 6.50225C16.2257 6.27863 16.5028 6.16683 16.8333 6.16683C17.1639 6.16683 17.441 6.27863 17.6646 6.50225C17.8882 6.72586 18 7.00294 18 7.3335C18 7.66405 17.8882 7.94114 17.6646 8.16475C17.441 8.38836 17.1639 8.50016 16.8333 8.50016ZM16.8333 12.0002C16.5028 12.0002 16.2257 11.8884 16.0021 11.6647C15.7785 11.4411 15.6667 11.1641 15.6667 10.8335C15.6667 10.5029 15.7785 10.2259 16.0021 10.0022C16.2257 9.77863 16.5028 9.66683 16.8333 9.66683C17.1639 9.66683 17.441 9.77863 17.6646 10.0022C17.8882 10.2259 18 10.5029 18 10.8335C18 11.1641 17.8882 11.4411 17.6646 11.6647C17.441 11.8884 17.1639 12.0002 16.8333 12.0002ZM4 21.9168H14.5V19.0002H2.25V20.1668C2.25 20.4974 2.60972 21.1099 2.83333 21.3335C3.05694 21.5571 3.66944 21.9168 4 21.9168Z" fill="black"/>
</svg>
