<svg width="331" height="326" viewBox="0 0 331 326" fill="none" xmlns="http://www.w3.org/2000/svg">
<g clip-path="url(#clip0_6_7885)">
<path d="M210.133 73.3163H120.942C118.91 73.3188 116.961 74.1346 115.524 75.5847C114.087 77.0347 113.279 79.0008 113.276 81.0515V281.058L112.254 281.373L90.3742 288.134C89.3372 288.453 88.2172 288.343 87.26 287.83C86.3027 287.317 85.5865 286.441 85.2685 285.395L20.1862 70.8978C19.8695 69.8515 19.9774 68.7211 20.4863 67.7551C20.9952 66.7891 21.8634 66.0665 22.9001 65.7461L56.6168 55.3293L154.363 25.1414L188.079 14.7246C188.592 14.5653 189.131 14.5096 189.666 14.5608C190.2 14.6119 190.72 14.769 191.194 15.0228C191.668 15.2767 192.088 15.6224 192.43 16.0402C192.771 16.458 193.028 16.9397 193.185 17.4577L209.821 72.2849L210.133 73.3163Z" fill="#F2F2F2"/>
<path d="M229.596 72.2857L209.546 6.2063C209.212 5.1053 208.667 4.0814 207.941 3.19313C207.215 2.30486 206.323 1.56962 205.315 1.02942C204.307 0.489222 203.204 0.15465 202.068 0.0448368C200.932 -0.0649768 199.786 0.0521191 198.695 0.389421L151.292 15.0296L53.5511 45.2227L6.14752 59.8681C3.94541 60.5503 2.10154 62.0863 1.02066 64.1389C-0.0602234 66.1914 -0.289818 68.5928 0.382281 70.816L68.9092 296.648C69.4552 298.443 70.5568 300.014 72.0525 301.13C73.5482 302.247 75.3591 302.85 77.2196 302.852C78.0807 302.852 78.937 302.722 79.7596 302.465L112.255 292.43L113.277 292.11V291.032L112.255 291.347L79.4581 301.48C77.5144 302.078 75.4149 301.874 73.6204 300.912C71.8258 299.95 70.4826 298.309 69.8854 296.349L1.36378 70.5117C1.06791 69.5407 0.964787 68.5202 1.06032 67.5089C1.15586 66.4976 1.44817 65.5152 1.92052 64.618C2.39288 63.7208 3.03602 62.9264 3.81307 62.2804C4.59013 61.6343 5.48586 61.1493 6.44897 60.853L53.8525 46.2077L151.593 16.0197L198.997 1.37438C199.727 1.14944 200.487 1.03475 201.251 1.03403C202.89 1.03774 204.485 1.57094 205.802 2.55551C207.119 3.54008 208.089 4.9243 208.57 6.50541L228.528 72.2857L228.844 73.317H229.908L229.596 72.2857Z" fill="#3F3D56"/>
<path d="M62.7014 65.9147C61.7164 65.914 60.7574 65.5948 59.9654 65.0039C59.1733 64.4131 58.5897 63.5816 58.3003 62.6316L51.7173 40.9359C51.5404 40.3532 51.479 39.7409 51.5366 39.1342C51.5942 38.5275 51.7698 37.9382 52.0532 37.3999C52.3366 36.8616 52.7223 36.385 53.1883 35.9972C53.6543 35.6093 54.1914 35.3179 54.7691 35.1396L144.69 7.36304C145.856 7.00389 147.116 7.12638 148.193 7.70363C149.27 8.28088 150.076 9.26573 150.435 10.442L157.018 32.1379C157.373 33.3149 157.252 34.5862 156.68 35.6729C156.108 36.7596 155.132 37.5729 153.966 37.9345L64.0453 65.711C63.6098 65.8459 63.1569 65.9145 62.7014 65.9147Z" fill="#F2994A"/>
<path d="M97.1847 23.1823C102.83 23.1823 107.406 18.5647 107.406 12.8687C107.406 7.17262 102.83 2.55505 97.1847 2.55505C91.5393 2.55505 86.9629 7.17262 86.9629 12.8687C86.9629 18.5647 91.5393 23.1823 97.1847 23.1823Z" fill="#F2994A"/>
<path d="M97.1856 19.3996C100.76 19.3996 103.658 16.4756 103.658 12.8687C103.658 9.26175 100.76 6.33777 97.1856 6.33777C93.6108 6.33777 90.7129 9.26175 90.7129 12.8687C90.7129 16.4756 93.6108 19.3996 97.1856 19.3996Z" fill="white"/>
<path d="M308.001 300.216H135.252C134.101 300.215 132.996 299.752 132.182 298.931C131.368 298.109 130.91 296.995 130.908 295.833V86.9819C130.909 85.8198 131.368 84.7056 132.182 83.8839C132.996 83.0622 134.101 82.5999 135.252 82.5986H308.001C309.152 82.6 310.257 83.0622 311.071 83.8839C311.885 84.7057 312.344 85.8198 312.345 86.9819V295.833C312.344 296.995 311.885 298.109 311.071 298.931C310.257 299.752 309.152 300.215 308.001 300.216Z" fill="#E6E6E6"/>
<path d="M228.527 72.285H120.942C118.639 72.2883 116.431 73.213 114.802 74.8563C113.174 76.4997 112.257 78.7276 112.254 81.0516V291.346L113.276 291.032V81.0516C113.279 79.0009 114.087 77.0348 115.524 75.5847C116.961 74.1347 118.91 73.3189 120.942 73.3164H228.844L228.527 72.285ZM322.312 72.285H120.942C118.639 72.2883 116.431 73.213 114.802 74.8563C113.174 76.4997 112.257 78.7276 112.254 81.0516V317.234C112.257 319.558 113.174 321.785 114.802 323.429C116.431 325.072 118.639 325.997 120.942 326H322.312C324.615 325.997 326.823 325.072 328.452 323.429C330.08 321.785 330.997 319.558 331 317.234V81.0516C330.997 78.7276 330.08 76.4997 328.452 74.8563C326.823 73.213 324.615 72.2883 322.312 72.285ZM329.978 317.234C329.976 319.284 329.167 321.25 327.73 322.7C326.293 324.15 324.344 324.966 322.312 324.969H120.942C118.91 324.966 116.961 324.15 115.524 322.7C114.087 321.25 113.279 319.284 113.276 317.234V81.0516C113.279 79.0009 114.087 77.0348 115.524 75.5847C116.961 74.1347 118.91 73.3189 120.942 73.3164H322.312C324.344 73.3189 326.293 74.1347 327.73 75.5847C329.167 77.0348 329.976 79.0009 329.978 81.0516V317.234Z" fill="#3F3D56"/>
<path d="M268.648 94.9749H174.608C173.388 94.9735 172.219 94.4841 171.357 93.614C170.494 92.7439 170.009 91.5643 170.008 90.3338V67.6438C170.009 66.4133 170.494 65.2337 171.357 64.3636C172.219 63.4935 173.388 63.0041 174.608 63.0027H268.648C269.868 63.0041 271.037 63.4935 271.899 64.3636C272.761 65.2337 273.246 66.4133 273.248 67.6438V90.3338C273.246 91.5643 272.761 92.7439 271.899 93.614C271.037 94.4841 269.868 94.9735 268.648 94.9749Z" fill="#F2994A"/>
<path d="M221.626 64.5497C227.271 64.5497 231.848 59.9322 231.848 54.2361C231.848 48.5401 227.271 43.9225 221.626 43.9225C215.981 43.9225 211.404 48.5401 211.404 54.2361C211.404 59.9322 215.981 64.5497 221.626 64.5497Z" fill="#F2994A"/>
<path d="M221.626 60.5181C225.065 60.5181 227.852 57.7056 227.852 54.2362C227.852 50.7668 225.065 47.9542 221.626 47.9542C218.188 47.9542 215.4 50.7668 215.4 54.2362C215.4 57.7056 218.188 60.5181 221.626 60.5181Z" fill="white"/>
</g>
<defs>
<clipPath id="clip0_6_7885">
<rect width="331" height="326" fill="white"/>
</clipPath>
</defs>
</svg>
