<svg width="23" height="23" viewBox="0 0 23 23" fill="none" xmlns="http://www.w3.org/2000/svg">
<path d="M4.77596 17.4157C5.73221 16.7075 6.77391 16.1483 7.90107 15.738C9.02822 15.3278 10.2279 15.1226 11.5 15.1226C12.7721 15.1226 13.9717 15.3278 15.0989 15.738C16.226 16.1483 17.2677 16.7075 18.224 17.4157C18.9235 16.6485 19.4777 15.7603 19.8866 14.7513C20.2955 13.7422 20.5 12.6496 20.5 11.4736C20.5 8.98472 19.6234 6.86546 17.8703 5.11579C16.1172 3.36612 13.9937 2.49128 11.5 2.49128C9.00622 2.49128 6.88278 3.36612 5.12966 5.11579C3.37653 6.86546 2.49997 8.98472 2.49997 11.4736C2.49997 12.6496 2.70442 13.7422 3.11332 14.7513C3.52222 15.7603 4.07643 16.6485 4.77596 17.4157ZM11.5003 12.3156C10.4732 12.3156 9.60695 11.9638 8.90167 11.2601C8.19639 10.5564 7.84375 9.69204 7.84375 8.66694C7.84375 7.64181 8.19628 6.77731 8.90133 6.07341C9.60641 5.36952 10.4725 5.01757 11.4996 5.01757C12.5268 5.01757 13.393 5.36941 14.0983 6.07308C14.8036 6.77676 15.1562 7.64116 15.1562 8.66626C15.1562 9.69138 14.8037 10.5559 14.0986 11.2598C13.3935 11.9637 12.5274 12.3156 11.5003 12.3156ZM11.5 22.14C10.0158 22.14 8.62366 21.8615 7.32344 21.3044C6.0232 20.7473 4.89207 19.9887 3.93004 19.0286C2.96804 18.0685 2.20795 16.9396 1.64978 15.6419C1.09159 14.3442 0.8125 12.9548 0.8125 11.4736C0.8125 9.99235 1.09159 8.60291 1.64978 7.30525C2.20795 6.00757 2.96804 4.87867 3.93004 3.91854C4.89207 2.95842 6.0232 2.19983 7.32344 1.64276C8.62366 1.08567 10.0158 0.807129 11.5 0.807129C12.9841 0.807129 14.3763 1.08567 15.6765 1.64276C16.9767 2.19983 18.1079 2.95842 19.0699 3.91854C20.0319 4.87867 20.792 6.00757 21.3502 7.30525C21.9083 8.60291 22.1874 9.99235 22.1874 11.4736C22.1874 12.9548 21.9083 14.3442 21.3502 15.6419C20.792 16.9396 20.0319 18.0685 19.0699 19.0286C18.1079 19.9887 16.9767 20.7473 15.6765 21.3044C14.3763 21.8615 12.9841 22.14 11.5 22.14ZM11.5 20.4558C12.5154 20.4558 13.4943 20.2928 14.4369 19.9668C15.3794 19.6408 16.2163 19.1848 16.9476 18.5989C16.2163 18.0347 15.3903 17.5949 14.4693 17.2797C13.5484 16.9644 12.5586 16.8068 11.5 16.8068C10.4413 16.8068 9.44972 16.9626 8.52519 17.2742C7.60067 17.5859 6.77639 18.0274 6.05236 18.5989C6.78361 19.1848 7.62051 19.6408 8.56307 19.9668C9.50562 20.2928 10.4846 20.4558 11.5 20.4558ZM11.5 10.6315C12.0596 10.6315 12.5276 10.4437 12.9041 10.0679C13.2805 9.69223 13.4687 9.22511 13.4687 8.6666C13.4687 8.10809 13.2805 7.64097 12.9041 7.26525C12.5276 6.88955 12.0596 6.7017 11.5 6.7017C10.9404 6.7017 10.4723 6.88955 10.0959 7.26525C9.71941 7.64097 9.53119 8.10809 9.53119 8.6666C9.53119 9.22511 9.71941 9.69223 10.0959 10.0679C10.4723 10.4437 10.9404 10.6315 11.5 10.6315Z" fill="#2D2B2B"/>
</svg>
