<svg width="15" height="22" viewBox="0 0 15 22" fill="none" xmlns="http://www.w3.org/2000/svg">
<path d="M2.19638 21.4729C1.584 21.4729 1.06907 21.2642 0.65159 20.8467C0.234123 20.4292 0.0253906 19.9143 0.0253906 19.3019V9.93974C0.0253906 9.32737 0.234123 8.81244 0.65159 8.39496C1.06907 7.97749 1.584 7.76876 2.19638 7.76876H4.05593V9.35001H2.19638C2.04895 9.35001 1.9138 9.41144 1.79093 9.5343C1.66807 9.65717 1.60664 9.79232 1.60664 9.93974V19.3019C1.60664 19.4494 1.66807 19.5845 1.79093 19.7074C1.9138 19.8302 2.04895 19.8917 2.19638 19.8917H12.8044C12.9518 19.8917 13.087 19.8302 13.2099 19.7074C13.3327 19.5845 13.3941 19.4494 13.3941 19.3019V9.93974C13.3941 9.79232 13.3327 9.65717 13.2099 9.5343C13.087 9.41144 12.9518 9.35001 12.8044 9.35001H10.9449V7.76876H12.8044C13.4168 7.76876 13.9317 7.97749 14.3492 8.39496C14.7667 8.81244 14.9754 9.32737 14.9754 9.93974V19.3019C14.9754 19.9143 14.7667 20.4292 14.3492 20.8467C13.9317 21.2642 13.4168 21.4729 12.8044 21.4729H2.19638ZM6.70977 14.8604V3.66084L4.93685 5.43373L3.80343 4.31876L7.50039 0.621796L11.1974 4.31876L10.0639 5.43373L8.29102 3.66084V14.8604H6.70977Z" fill="#4F4F4F"/>
</svg>
