<svg width="26" height="26" viewBox="0 0 26 26" fill="none" xmlns="http://www.w3.org/2000/svg">
<path d="M12.086 19.4167H13.9147V11.7167H12.086V19.4167ZM13.0003 9.15008C13.3639 9.15008 13.6687 9.0271 13.9147 8.78112C14.1607 8.53515 14.2837 8.23036 14.2837 7.86675C14.2837 7.50314 14.1607 7.19834 13.9147 6.95237C13.6687 6.7064 13.3639 6.58341 13.0003 6.58341C12.6367 6.58341 12.3319 6.7064 12.086 6.95237C11.84 7.19834 11.717 7.50314 11.717 7.86675C11.717 8.23036 11.84 8.53515 12.086 8.78112C12.3319 9.0271 12.6367 9.15008 13.0003 9.15008ZM13.0003 25.8334C11.225 25.8334 9.55671 25.4965 7.99533 24.8228C6.43394 24.149 5.07574 23.2347 3.92074 22.0797C2.76574 20.9247 1.85137 19.5665 1.17762 18.0051C0.503867 16.4437 0.166992 14.7754 0.166992 13.0001C0.166992 11.2248 0.503867 9.55647 1.17762 7.99508C1.85137 6.43369 2.76574 5.0755 3.92074 3.9205C5.07574 2.7655 6.43394 1.85112 7.99533 1.17737C9.55671 0.503623 11.225 0.166748 13.0003 0.166748C14.7756 0.166748 16.4439 0.503623 18.0053 1.17737C19.5667 1.85112 20.9249 2.7655 22.0799 3.9205C23.2349 5.0755 24.1493 6.43369 24.823 7.99508C25.4968 9.55647 25.8337 11.2248 25.8337 13.0001C25.8337 14.7754 25.4968 16.4437 24.823 18.0051C24.1493 19.5665 23.2349 20.9247 22.0799 22.0797C20.9249 23.2347 19.5667 24.149 18.0053 24.8228C16.4439 25.4965 14.7756 25.8334 13.0003 25.8334ZM13.0003 24.0834C15.8664 24.0834 18.5945 23.1559 20.5837 21.1667C22.5728 19.1776 24.0837 15.8662 24.0837 13.0001C24.0837 10.134 23.1562 7.40591 21.167 5.41675C19.1778 3.42758 15.8664 1.91675 13.0003 1.91675C10.1342 1.91675 6.82283 3.42758 4.83366 5.41675C2.84449 7.40591 1.91699 10.134 1.91699 13.0001C1.91699 15.8662 2.84449 18.5942 4.83366 20.5834C6.82283 22.5726 10.1342 24.0834 13.0003 24.0834Z" fill="black"/>
</svg>
